<?xml version="1.0" encoding="UTF-8" standalone="no"?>
<!-- Created with Inkscape (http://www.inkscape.org/) -->

<svg
   width="395.23254"
   height="398.22089"
   viewBox="0 0 395.23254 398.22089"
   version="1.1"
   id="svg1"
   xmlns="http://www.w3.org/2000/svg"
   xmlns:svg="http://www.w3.org/2000/svg">
  <defs
     id="defs1" />
  <g
     id="layer1"
     transform="translate(-58.38374,-56.88956)">
    <path
       id="path1"
       style="fill:#eb4f27;fill-rule:evenodd;stroke-width:6.03486;stroke-linejoin:bevel"
       d="M 79.124745,56.889559 A 20.742528,23.746987 0 0 0 61.162044,92.508713 L 128.29141,225.61957 145.7011,56.889559 Z m 290.031705,0 V 133.48827 H 234.19491 l -3.21447,30.7567 h 48.65992 c 21.11666,0 39.93978,4.43883 56.46586,13.31395 16.52608,8.87512 29.37929,21.26943 38.56045,37.18344 2.77231,4.71295 5.12605,9.6483 7.06125,14.80772 L 450.83796,92.508713 a 20.742527,23.746986 0 0 0 -17.9627,-35.619154 z m -235.70294,178.968291 13.89118,27.54443 h 76.29249 c 0.30603,8.56908 3.21157,15.30234 8.72027,20.19895 5.81473,4.89662 13.46576,7.34327 22.95295,7.34327 9.79323,0 17.5987,-2.44665 23.41343,-7.34327 5.81474,-4.89661 8.72027,-11.62987 8.72027,-20.19895 0,-8.56909 -2.90553,-15.30234 -8.72027,-20.19896 -5.81473,-4.89661 -13.6202,-7.34547 -23.41343,-7.34547 z m 67.26595,133.38184 37.31784,73.99894 a 20.742527,23.746986 0 0 0 35.92541,0 l 36.71856,-72.81142 c -15.5991,4.54672 -32.98487,6.82112 -52.1564,6.82112 -21.72915,0 -40.9976,-2.67024 -57.80541,-8.00864 z" />
  </g>
</svg>
